<?xml version="1.0" encoding="UTF-8"?>
<svg id="Calque_1" xmlns="http://www.w3.org/2000/svg" version="1.1" viewBox="0 0 200 17.61">
  <!-- Generator: Adobe Illustrator 29.7.1, SVG Export Plug-In . SVG Version: 2.1.1 Build 8)  -->
  <path d="M199.96,8.77c0-.4-.16-.78-.44-1.06l-7.18-7.18c-.59-.59-1.54-.59-2.12,0-.59.59-.59,1.54,0,2.12l4.62,4.62H1.54C.71,7.28.04,7.95.04,8.78s.67,1.5,1.5,1.5h193.3l-4.67,4.67c-.59.59-.59,1.54,0,2.12.29.29.68.44,1.06.44s.77-.15,1.06-.44l7.2-7.2c.29-.27.48-.66.48-1.09,0,0,0,0,0,0s0,0,0,0Z" fill="#000a51"/>
</svg>