<?xml version="1.0" encoding="UTF-8"?>
<svg id="Calque_1" xmlns="http://www.w3.org/2000/svg" version="1.1" viewBox="0 0 720 168.23">
  <!-- Generator: Adobe Illustrator 29.7.1, SVG Export Plug-In . SVG Version: 2.1.1 Build 8)  -->
  <g>
    <path d="M253.12,76.73c-4.05-2.52-8.64-3.78-13.76-3.78-3.93,0-7.53.73-10.82,2.18-3.29,1.45-6.17,3.54-8.64,6.27h-.13l2.51-16.01c1.57-10.02-6.17-19.07-16.31-19.07h-.54l-9.47,57.35c-.09,1.11-.19,2.22-.32,3.33-.13,1.11-.19,2.13-.19,3.07,0,6.23,1.34,11.69,4.03,16.39,2.69,4.69,6.51,8.37,11.46,11.01,4.95,2.64,10.92,3.97,17.92,3.97,5.55,0,10.63-.92,15.23-2.75,4.61-1.83,8.58-4.46,11.91-7.87,3.33-3.41,5.87-7.47,7.62-12.16,1.75-4.69,2.62-9.9,2.62-15.62,0-6.06-1.17-11.33-3.52-15.81-2.35-4.48-5.55-7.98-9.6-10.5ZM243.65,114.69c-1.49,2.9-3.46,5.19-5.89,6.85-2.43,1.66-5.23,2.5-8.38,2.5-2.56,0-4.91-.6-7.04-1.79-2.13-1.19-3.8-2.94-4.99-5.25-1.2-2.3-1.79-4.99-1.79-8.07,0-3.58.77-6.8,2.3-9.67,1.54-2.86,3.56-5.12,6.08-6.78,2.52-1.66,5.31-2.5,8.39-2.5,2.82,0,5.23.6,7.23,1.79,2,1.2,3.54,2.9,4.61,5.12,1.07,2.22,1.64,4.91,1.73,8.07,0,3.58-.75,6.83-2.24,9.73Z" fill="#ffc145"/>
    <path d="M320.19,110.98c-.34,2.56-1.2,4.82-2.56,6.79-1.37,1.96-3.05,3.52-5.06,4.67-2.01,1.15-4.25,1.73-6.72,1.73-3.41,0-6.14-1.02-8.19-3.07-2.05-2.05-3.07-4.69-3.07-7.94v-1.28c0-.51.04-1.02.13-1.54l2.79-17.52c1.56-9.82-6.02-18.7-15.97-18.7h-.77l-5.63,35.46c-.09.85-.21,1.79-.38,2.82-.17,1.02-.26,1.96-.26,2.82,0,5.04,1.22,9.52,3.65,13.44,2.43,3.93,5.87,7.02,10.31,9.28,4.44,2.26,9.64,3.39,15.62,3.39,6.83,0,12.76-1.22,17.79-3.65,5.03-2.43,9.07-5.83,12.1-10.18,3.03-4.35,4.97-9.3,5.82-14.85l5.89-38.53h-19.71l-5.76,36.87Z" fill="#ffc145"/>
    <path d="M429.46,46.33c-11.05,0-20.45,8.06-22.13,18.98l-2.46,15.97h-.38c-.85-1.36-2.2-2.71-4.03-4.03-1.84-1.32-4.08-2.43-6.72-3.33-2.65-.9-5.8-1.34-9.47-1.34-4.95,0-9.54.96-13.76,2.88-4.22,1.92-7.87,4.52-10.95,7.81-3.07,3.29-5.48,7.13-7.23,11.52-1.75,4.4-2.62,9.07-2.62,14.02,0,6.49,1.32,12.16,3.97,17.03,2.64,4.86,6.42,8.64,11.33,11.33,4.91,2.69,10.86,4.03,17.86,4.03,6.4,0,12.25-1.3,17.54-3.9,5.29-2.6,9.75-6.46,13.38-11.59,3.63-5.12,5.95-11.48,6.98-19.08l9.35-60.3h-.64ZM398.41,114.75c-1.41,2.86-3.35,5.14-5.82,6.85-2.48,1.71-5.29,2.56-8.45,2.56-2.9,0-5.38-.66-7.42-1.98-2.05-1.32-3.63-3.18-4.74-5.57-1.11-2.39-1.66-5.12-1.66-8.19,0-3.41.7-6.51,2.11-9.28,1.41-2.77,3.33-4.99,5.76-6.66,2.43-1.66,5.18-2.5,8.26-2.5,2.39,0,4.67.6,6.85,1.79,2.18,1.2,3.95,2.92,5.31,5.18,1.36,2.26,2,5.1,1.92,8.51,0,3.33-.7,6.42-2.11,9.28Z" fill="#ffc145"/>
  </g>
  <g>
    <path d="M458,58.11h-.61c-4.61,0-8.35,3.74-8.35,8.35v8.03h-11.39v7.81h11.39v38.92c0,5.72,1.64,10.24,4.93,13.57,3.28,3.33,7.83,4.99,13.63,4.99h14.34v-7.81h-12.55c-3.76,0-6.59-1.02-8.51-3.07s-2.88-4.95-2.88-8.71v-37.89h24.2v-7.81h-24.2v-16.39Z" fill="#ffffdc"/>
    <path d="M497.94,79.42c-3.29,3.29-4.93,7.83-4.93,13.63v46.73h8.96v-45.7c0-3.75.96-6.66,2.88-8.71,1.92-2.05,4.76-3.07,8.51-3.07h2.16c4.04,0,7.31-3.27,7.31-7.31v-.5h-11.27c-5.8,0-10.35,1.64-13.63,4.93Z" fill="#ffffdc"/>
    <path d="M578.36,77.44c-4.91-2.99-10.73-4.48-17.47-4.48s-13.04,1.49-18.11,4.48c-5.08,2.99-8.98,7.06-11.71,12.23-2.73,5.16-4.1,10.99-4.1,17.48s1.24,12.18,3.71,17.35c2.47,5.16,6.06,9.28,10.75,12.35,4.69,3.07,10.33,4.61,16.9,4.61,4.61,0,8.64-.81,12.1-2.43,3.46-1.62,6.38-3.69,8.77-6.21,2.39-2.52,4.18-5.06,5.38-7.62h.38v5.83c0,4.84,3.92,8.77,8.77,8.77h.07v-33.29c0-6.31-1.34-11.99-4.03-17.03-2.69-5.03-6.49-9.05-11.39-12.03ZM581.56,120.64c-2.09,4.05-4.97,7.26-8.64,9.6-3.67,2.35-7.9,3.52-12.67,3.52-5.12,0-9.5-1.17-13.12-3.52-3.63-2.35-6.38-5.52-8.26-9.54-1.88-4.01-2.82-8.41-2.82-13.19,0-5.12.98-9.71,2.94-13.76,1.96-4.05,4.78-7.25,8.45-9.6,3.67-2.35,8.07-3.52,13.19-3.52s9.22,1.15,12.8,3.46,6.36,5.42,8.32,9.34c1.96,3.93,2.94,8.41,2.94,13.44s-1.05,9.71-3.14,13.76Z" fill="#ffffdc"/>
    <path d="M623.64,78.84c-5.29,2.9-9.47,6.81-12.55,11.71-3.07,4.91-4.61,10.43-4.61,16.58s1.54,11.67,4.61,16.58c3.07,4.91,7.25,8.81,12.55,11.71,5.29,2.9,11.31,4.35,18.05,4.35h7.43v-7.81h-8.07c-4.69,0-8.96-1.09-12.8-3.26-3.84-2.18-6.91-5.14-9.22-8.9-2.3-3.75-3.46-7.98-3.46-12.67s1.15-8.92,3.46-12.67c2.3-3.75,5.38-6.72,9.22-8.9,3.84-2.18,8.11-3.26,12.8-3.26h.94c3.93,0,7.12-3.19,7.12-7.12v-.69h-7.43c-6.74,0-12.76,1.45-18.05,4.35Z" fill="#ffffdc"/>
    <path d="M714.62,114.18c-3.58-4.95-8.62-8.24-15.11-9.86l18.95-29.83h-.94c-5.71,0-11.01,2.94-14.03,7.78l-12.94,20.76h-21.63v-48.42c0-4.58-3.71-8.29-8.29-8.29h-.67v93.45h8.96v-28.93h21.25c4.18,0,7.83.92,10.95,2.75,3.11,1.84,5.57,4.33,7.36,7.49,1.79,3.16,2.69,6.74,2.69,10.75v7.94h8.83v-7.94c0-6.83-1.79-12.72-5.38-17.67Z" fill="#ffffdc"/>
  </g>
  <g>
    <path d="M291.36,36.4c-1.38-.79-3.07-1.18-5.05-1.18-1.07,0-2.19.18-3.35.54-1.16.36-2.28.96-3.35,1.79-1.07.83-1.98,1.96-2.74,3.37h-.05c-.47-1.45-1.17-2.58-2.1-3.4s-1.97-1.41-3.11-1.77c-1.15-.36-2.26-.54-3.32-.54-2.01,0-3.8.42-5.38,1.25-1.57.83-2.85,1.97-3.84,3.42-.99,1.45-1.64,3.11-1.96,5l-2.36,15h3.3l2.31-14.86c.22-1.29.69-2.45,1.42-3.49.72-1.04,1.63-1.87,2.74-2.5,1.1-.63,2.31-.94,3.63-.94s2.42.28,3.4.83c.97.55,1.74,1.31,2.31,2.26.57.96.85,2.07.85,3.33,0,.25,0,.52-.02.8-.02.28-.05.57-.12.85l-2.17,13.72h3.3l2.26-14.53c.22-1.35.71-2.58,1.46-3.68.75-1.1,1.7-1.98,2.85-2.64,1.15-.66,2.4-.99,3.75-.99,1.98,0,3.54.59,4.67,1.77,1.13,1.18,1.7,2.81,1.7,4.88,0,.25-.02.53-.05.83-.03.3-.06.59-.09.87l-2.17,13.49h.35c1.68,0,3.1-1.22,3.37-2.87l1.62-10.15c.06-.41.12-.82.16-1.23.05-.41.07-.82.07-1.23,0-1.79-.37-3.38-1.11-4.76-.74-1.38-1.8-2.47-3.18-3.25Z" fill="#ffffdc"/>
    <path d="M321.94,38.8l-1.63,10.54c-2.39.84-4.49,1.79-6.26,2.86-1.89,1.13-3.44,2.33-4.67,3.61-.33.34-.63.68-.91,1.02-1.19-.41-2.15-1.1-2.87-2.08-.82-1.13-1.23-2.55-1.23-4.24,0-.28.02-.6.05-.94.03-.35.06-.68.09-.99l1.98-12.73h-3.25l-2.08,12.78c-.03.32-.06.71-.09,1.18s-.05.88-.05,1.23c0,2.17.57,4.04,1.7,5.61.98,1.36,2.31,2.34,3.98,2.92-.02.04-.04.08-.06.12-.6,1.3-.9,2.57-.9,3.8,0,1.13.27,2.21.83,3.23.55,1.02,1.37,1.85,2.45,2.48,1.09.63,2.41.94,3.99.94s3-.34,4.2-1.01c1.19-.68,2.18-1.67,2.95-2.97.77-1.31,1.3-2.85,1.58-4.65l4.01-25.66h-.35c-1.73,0-3.2,1.26-3.46,2.97ZM318.39,61.82c-.25,1.63-.83,2.96-1.74,3.96-.91,1.01-2.11,1.51-3.58,1.51-1.35,0-2.38-.4-3.09-1.2-.71-.8-1.06-1.82-1.06-3.04,0-2.04,1-4.05,2.99-6.01,1.95-1.92,4.61-3.56,7.98-4.92l-1.5,9.71Z" fill="#ffffdc"/>
  </g>
  <path d="M138.8,0h-24.89l-11.74,74.01h74.01l4.05-25.5C184.26,23.05,164.58,0,138.8,0Z" fill="#ffc145"/>
  <path d="M101.74,12.49h-22.7c-28.18,0-52.17,20.49-56.59,48.32l-3.7,23.3h71.62l11.36-71.62Z" fill="#ffffdc"/>
  <path d="M90.37,84.12l-11.36,71.62h22.7c28.18,0,52.17-20.49,56.59-48.32l3.7-23.3h-71.62Z" fill="#ffffdc"/>
  <path d="M4.57,94.22L.53,119.72c-4.04,25.47,15.64,48.51,41.42,48.51h24.89l11.74-74.01H4.57Z" fill="#3b61ff"/>
</svg>